<svg xmlns="http://www.w3.org/2000/svg" height="511pt" version="1.1" viewBox="1 -18 511.99896 511" width="511pt">
<g id="surface1">
<path d="M 376.898438 204.46875 C 302.402344 204.46875 241.796875 265.074219 241.796875 339.566406 C 241.796875 414.0625 302.402344 474.667969 376.898438 474.667969 C 451.394531 474.667969 512 414.0625 512 339.566406 C 512 265.070312 451.394531 204.46875 376.898438 204.46875 Z M 433.757812 356.226562 L 375.855469 356.226562 C 367.234375 356.226562 360.242188 349.234375 360.242188 340.609375 L 360.242188 282.710938 C 360.242188 274.085938 367.234375 267.09375 375.855469 267.09375 C 384.480469 267.09375 391.472656 274.085938 391.472656 282.710938 L 391.472656 324.992188 L 433.757812 324.992188 C 442.378906 324.992188 449.371094 331.984375 449.371094 340.609375 C 449.371094 349.234375 442.382812 356.226562 433.757812 356.226562 Z M 433.757812 356.226562 " style=" stroke:none;fill-rule:nonzero;fill:rgb(0%,0%,0%);fill-opacity:1;" />
<path d="M 174.101562 122.085938 L 205.746094 108.835938 C 209.605469 107.21875 213.949219 107.21875 217.808594 108.835938 L 249.449219 122.085938 L 249.449219 0.5 L 174.101562 0.5 Z M 174.101562 122.085938 " style=" stroke:none;fill-rule:nonzero;fill:rgb(0%,0%,0%);fill-opacity:1;" />
<path d="M 376.898438 173.234375 C 393.089844 173.234375 408.742188 175.570312 423.550781 179.90625 L 423.550781 38.867188 C 423.550781 17.710938 406.339844 0.5 385.183594 0.5 L 280.679688 0.5 L 280.679688 145.554688 C 280.679688 150.78125 278.066406 155.660156 273.714844 158.554688 C 271.113281 160.285156 268.097656 161.167969 265.0625 161.167969 C 263.019531 161.167969 260.972656 160.769531 259.03125 159.957031 L 211.773438 140.171875 L 164.515625 159.957031 C 159.699219 161.976562 154.1875 161.449219 149.835938 158.554688 C 145.484375 155.660156 142.871094 150.78125 142.871094 145.554688 L 142.871094 0.5 L 38.367188 0.5 C 17.210938 0.5 0 17.710938 0 38.867188 L 0 385.683594 C 0 406.839844 17.210938 424.050781 38.367188 424.050781 L 233.671875 424.050781 C 219.003906 399.273438 210.566406 370.390625 210.566406 339.570312 C 210.566406 247.851562 285.183594 173.234375 376.898438 173.234375 Z M 376.898438 173.234375 " style=" stroke:none;fill-rule:nonzero;fill:rgb(0%,0%,0%);fill-opacity:1;" />
</g>
</svg>